<?xml version="1.0" standalone="no"?><!DOCTYPE svg PUBLIC "-//W3C//DTD SVG 1.1//EN" "http://www.w3.org/Graphics/SVG/1.1/DTD/svg11.dtd"><svg t="1700321813996" class="icon" viewBox="0 0 1024 1024" version="1.1" xmlns="http://www.w3.org/2000/svg" p-id="16017" xmlns:xlink="http://www.w3.org/1999/xlink" width="200" height="200"><path d="M0 0m512 0l0 0q512 0 512 512l0 0q0 512-512 512l0 0q-512 0-512-512l0 0q0-512 512-512Z" fill="#1368BD" p-id="16018"></path><path d="M355.424 415.968v370.368H232.096V416h123.328z m7.84-114.4a59.104 59.104 0 0 1-18.88 45.6c-12.864 12.224-29.76 18.304-50.688 18.304h-0.768c-20.448 0-36.864-6.08-49.312-18.304-12.448-12.224-18.688-27.424-18.72-45.6 0-18.432 6.4-33.696 19.232-45.76 12.832-12.096 29.6-18.144 50.304-18.144 20.672 0 37.248 6.048 49.696 18.112 12.448 12.096 18.784 27.36 19.04 45.792h0.096z m435.776 272.448v212.288h-122.944V588.16c0-26.144-5.024-46.656-15.136-61.472-10.048-14.848-25.824-22.272-47.264-22.272-15.68 0-28.8 4.32-39.424 12.928a79.68 79.68 0 0 0-23.712 31.968c-2.752 7.456-4.128 17.568-4.128 30.272v206.688h-122.944c0.512-99.424 0.768-180.032 0.768-241.856 0-61.792-0.128-98.688-0.384-110.656l-0.384-17.92h122.944v53.824h-0.768c4.992-8 10.112-14.976 15.328-20.96 5.216-6.016 12.256-12.48 21.12-19.424a97.92 97.92 0 0 1 32.512-16.256 146.368 146.368 0 0 1 42.816-5.792c42.592 0 76.864 14.144 102.752 42.432 25.92 28.288 38.88 69.696 38.912 124.288l-0.064 0.032z" fill="#FFFFFF" p-id="16019"></path></svg>