<svg class="icon" style="width: 1.001953125em;height: 1em;vertical-align: middle;fill: currentColor;overflow: hidden;" viewBox="0 0 1026 1024" version="1.1" xmlns="http://www.w3.org/2000/svg" p-id="8792"><path d="M2.4 0h1024v1024H2.4z" fill-opacity="0" p-id="8793"></path><path d="M87.8 85.3h852.5v852.5H87.8z" fill-opacity="0" p-id="8794"></path><path d="M853.5 350.9c0-8-0.2-15.9-0.5-23.8 34.2-25.5 63.8-57.4 87.3-93.8-31.9 14.3-65.8 23.6-100.5 27.5 36.1-22.2 63.8-57.8 76.9-100.5-33.8 20.5-71.3 35.2-111 42.8-31.9-36.3-77.4-59.4-127.7-60.2-96.6-1.6-174.9 80-174.9 182.3 0 14.5 1.5 28.6 4.5 42.2C362.1 358 233.2 282.3 147 168.2c-15 27.3-23.7 59.3-23.7 93.6 0 64.8 30.9 122.4 77.8 156.3-28.7-1.3-55.6-10-79.2-24.3v2.4c0 90.5 60.3 166.4 140.3 184.1-14.7 4.2-30.1 6.3-46.1 6.3-11.1-0.1-22.1-1.3-32.9-3.6 22.2 74.2 86.9 128.4 163.4 130.2-59.9 49.6-135.3 79.3-217.2 79.1-14.1 0-28.1-0.9-41.8-2.7 77.4 53.1 169.3 84.1 268.2 84.1 321.8 0.1 497.7-279.9 497.7-522.8z" fill="#41ABE1" p-id="8795"></path></svg>