<?xml version="1.0" standalone="no"?><!DOCTYPE svg PUBLIC "-//W3C//DTD SVG 1.1//EN" "http://www.w3.org/Graphics/SVG/1.1/DTD/svg11.dtd"><svg t="1700321899056" class="icon" viewBox="0 0 1024 1024" version="1.1" xmlns="http://www.w3.org/2000/svg" p-id="19134" xmlns:xlink="http://www.w3.org/1999/xlink" width="200" height="200"><path d="M512 1024C230.4 1024 0 793.6 0 512S230.4 0 512 0s512 230.4 512 512-230.4 512-512 512z" fill="#FF4545" p-id="19135"></path><path d="M512 1024C230.4 1024 0 793.6 0 512S230.4 0 512 0s512 230.4 512 512-230.4 512-512 512z" fill="#2283F6" p-id="19136"></path><path d="M772.266667 427.733333h-3.2v134.4c0 76.8-59.733333 125.866667-125.866667 125.866667H520.533333l-59.733333 40.533333c16 12.8 38.4 20.266667 59.733333 20.266667H586.666667l138.666666 76.8v-76.8h3.2c54.4 0 96-40.533333 96-91.733333V509.866667c-1.066667-35.2-21.333333-66.133333-52.266666-82.133334z" fill="#FFFFFF" p-id="19137"></path><path d="M446.933333 648.533333l76.8 1.066667H650.666667c52.266667 0 92.8-39.466667 92.8-88.533333V332.8c0-48-42.666667-88.533333-92.8-88.533333H294.4c-51.2 0-92.8 39.466667-92.8 88.533333v227.2c0 48 42.666667 88.533333 92.8 88.533333h35.2l-9.6 75.733334 126.933333-75.733334z" fill="#FFFFFF" p-id="19138"></path><path d="M409.6 408.533333c-14.933333 0-27.733333-12.8-27.733333-27.733333 0-14.933333 12.8-27.733333 27.733333-27.733333 14.933333 0 27.733333 12.8 27.733333 27.733333 0 13.866667-12.8 27.733333-27.733333 27.733333z m129.066667 0c-14.933333 0-27.733333-12.8-27.733334-27.733333 0-14.933333 12.8-27.733333 27.733334-27.733333 14.933333 0 27.733333 12.8 27.733333 27.733333 0 13.866667-12.8 27.733333-27.733333 27.733333z m-119.466667 73.6c0-10.666667 7.466667-18.133333 18.133333-18.133333s18.133333 7.466667 18.133334 18.133333 7.466667 18.133333 18.133333 18.133334 18.133333-7.466667 18.133333-18.133334 7.466667-18.133333 18.133334-18.133333 18.133333 7.466667 18.133333 18.133333c0 30.933333-23.466667 55.466667-55.466667 55.466667-29.866667 0-53.333333-24.533333-53.333333-55.466667z" fill="#2283F6" p-id="19139"></path></svg>