<?xml version="1.0" standalone="no"?><!DOCTYPE svg PUBLIC "-//W3C//DTD SVG 1.1//EN" "http://www.w3.org/Graphics/SVG/1.1/DTD/svg11.dtd"><svg t="1700321855247" class="icon" viewBox="0 0 1024 1024" version="1.1" xmlns="http://www.w3.org/2000/svg" p-id="18018" xmlns:xlink="http://www.w3.org/1999/xlink" width="200" height="200"><path d="M512 0A512 512 0 1 1 0 512 512 512 0 0 1 512 0z" fill="#3EB135" p-id="18019"></path><path d="M634.88 410.88h9.28c-16.32-91.2-110.08-160-224-160-125.44 0-226.24 84.48-226.24 189.44a179.84 179.84 0 0 0 88.64 150.08l1.6 1.6-22.08 68.16 84.8-40.64h3.52a274.56 274.56 0 0 0 71.68 9.28 92.8 92.8 0 0 0 15.36 0 160 160 0 0 1-6.72-45.12c-0.64-93.76 91.52-172.8 204.16-172.8z m-135.68-67.52a32 32 0 0 1 32 32 32 32 0 0 1-32 32 32 32 0 0 1-32-32 32 32 0 0 1 32.96-30.72z m-157.12 62.4a32 32 0 1 1 0-61.44 32 32 0 1 1 0 61.44z m484.8 180.48c0-88.64-85.44-160-190.4-160s-190.4 71.68-190.4 160 85.44 160 190.4 160a203.84 203.84 0 0 0 62.4-8h3.52l69.12 34.88-19.52-57.92a2.88 2.88 0 0 1 1.6 0 151.04 151.04 0 0 0 73.28-128.96z m-256-29.12a26.56 26.56 0 0 1-26.56-26.56 25.92 25.92 0 0 1 26.56-25.6 26.08 26.08 0 1 1 0 52.16z m132.16 0a26.56 26.56 0 0 1-26.56-26.56 25.92 25.92 0 0 1 26.56-25.6 26.56 26.56 0 0 1 26.56 25.6 25.6 25.6 0 0 1-26.56 26.56z" fill="#FFFFFF" p-id="18020"></path></svg>