<?xml version="1.0" standalone="no"?><!DOCTYPE svg PUBLIC "-//W3C//DTD SVG 1.1//EN" "http://www.w3.org/Graphics/SVG/1.1/DTD/svg11.dtd"><svg t="1700321779528" class="icon" viewBox="0 0 1024 1024" version="1.1" xmlns="http://www.w3.org/2000/svg" p-id="15877" xmlns:xlink="http://www.w3.org/1999/xlink" width="200" height="200"><path d="M1024 512c0 282.784-229.216 512-512 512S0 794.784 0 512 229.216 0 512 0s512 229.216 512 512z" fill="#178BED" p-id="15878"></path><path d="M694.72 196.8V301.44h-62.272c-22.752 0-38.08 4.768-46.016 14.272-7.936 9.504-11.872 23.808-11.872 42.88v74.976h116.224l-15.488 117.44h-100.736v301.12H453.12v-301.12H352v-117.44h101.12v-86.496c0-49.184 13.76-87.328 41.28-114.432C521.92 205.568 558.592 192 604.352 192c38.848 0 68.992 1.6 90.432 4.8z" fill="#FFFFFF" p-id="15879"></path></svg>