<svg class="icon" style="width: 1em;height: 1em;vertical-align: middle;fill: currentColor;overflow: hidden;" viewBox="0 0 1024 1024" version="1.1" xmlns="http://www.w3.org/2000/svg" p-id="24545"><path d="M984.064 467.968L536.576 52.224c-13.312-13.312-35.84-13.312-49.152 0L41.984 465.92c-6.144 5.12-9.216 13.312-9.216 21.504s3.072 15.36 8.192 20.48c5.12 6.144 12.288 9.216 20.48 9.216h71.68v431.104c0 17.408 14.336 31.744 31.744 31.744l703.488-1.024c17.408 0 31.744-14.336 31.744-31.744V518.144h63.488c8.192 0 15.36-3.072 21.504-9.216 6.144-5.12 9.216-13.312 9.216-20.48-1.024-8.192-4.096-15.36-10.24-20.48z" fill="#B47175" p-id="24546"></path><path d="M962.56 518.144c8.192 0 15.36-3.072 21.504-9.216 3.072-3.072 6.144-7.168 7.168-11.264-1.024-4.096-4.096-8.192-7.168-11.264L536.576 70.656c-13.312-13.312-35.84-13.312-49.152 0L40.96 485.376c-3.072 3.072-6.144 7.168-7.168 12.288 1.024 4.096 3.072 7.168 6.144 10.24 5.12 6.144 12.288 9.216 20.48 9.216h33.792l394.24-364.544c13.312-13.312 35.84-13.312 49.152 0L931.84 518.144h30.72z" fill="#AA5C62" p-id="24547"></path><path d="M984.064 463.872L536.576 48.128c-13.312-13.312-35.84-13.312-49.152 0L40.96 461.824c-6.144 5.12-9.216 13.312-9.216 21.504s3.072 15.36 8.192 20.48c11.264 11.264 30.72 12.288 41.984 1.024l406.528-375.808c13.312-13.312 35.84-13.312 49.152 0L942.08 506.88c5.12 5.12 12.288 8.192 20.48 8.192s15.36-3.072 21.504-9.216c6.144-5.12 9.216-13.312 9.216-20.48-1.024-8.192-4.096-16.384-9.216-21.504z" fill="#E2E6D7" p-id="24548"></path><path d="M962.56 516.096c-8.192 0-15.36-3.072-20.48-8.192L535.552 130.048c-6.144-6.144-14.336-10.24-23.552-10.24-9.216 0-17.408 3.072-23.552 10.24L81.92 505.856c-5.12 5.12-13.312 8.192-20.48 8.192-8.192 0-17.408-3.072-22.528-9.216-6.144-5.12-8.192-13.312-8.192-21.504s4.096-16.384 10.24-22.528L486.4 47.104c7.168-7.168 15.36-10.24 25.6-10.24 9.216 0 18.432 4.096 25.6 10.24l447.488 415.744c6.144 6.144 9.216 13.312 9.216 21.504s-3.072 16.384-9.216 21.504c-6.144 6.144-14.336 10.24-22.528 10.24zM512 117.76c9.216 0 18.432 4.096 25.6 10.24l406.528 376.832c5.12 5.12 12.288 8.192 19.456 8.192 8.192 0 15.36-3.072 20.48-9.216 6.144-5.12 9.216-12.288 9.216-20.48 0-7.168-3.072-14.336-8.192-19.456L535.552 49.152c-6.144-6.144-14.336-10.24-23.552-10.24-9.216 0-17.408 3.072-23.552 10.24L41.984 462.848c-6.144 5.12-9.216 12.288-9.216 20.48 0 7.168 3.072 14.336 8.192 19.456 5.12 6.144 12.288 9.216 20.48 9.216 7.168 0 14.336-3.072 19.456-7.168l406.528-375.808c6.144-7.168 14.336-11.264 24.576-11.264z" fill="#754C29" p-id="24549"></path><path d="M462.848 758.784H332.8c-35.84 0-64.512-28.672-64.512-64.512V485.376c0-35.84 28.672-64.512 64.512-64.512h131.072c35.84 0 64.512 28.672 64.512 64.512v209.92c-1.024 34.816-29.696 63.488-65.536 63.488zM332.8 440.32c-24.576 0-45.056 20.48-45.056 45.056v209.92c0 24.576 20.48 45.056 45.056 45.056h131.072c24.576 0 45.056-20.48 45.056-45.056V485.376c0-24.576-20.48-45.056-45.056-45.056H332.8z" fill="#AA5C62" p-id="24550"></path><path d="M479.232 751.616H303.104c-11.264 0-20.48-9.216-20.48-20.48V471.04c0-11.264 9.216-20.48 20.48-20.48h176.128c11.264 0 20.48 9.216 20.48 20.48v260.096c0 11.264-9.216 20.48-20.48 20.48z" fill="#5A6354" p-id="24551"></path><path d="M302.08 693.248c0 8.192 5.12 15.36 12.288 17.408-1.024-2.048-1.024-4.096-1.024-7.168v-40.96h69.632v-11.264h-79.872v41.984zM302.08 633.856h10.24v-66.56h68.608v-11.264h-78.848zM302.08 468.992v67.584h10.24v-57.344c0-10.24 9.216-19.456 19.456-19.456h50.176v-11.264h-60.416c-11.264 1.024-19.456 10.24-19.456 20.48zM411.648 460.8h60.416c3.072 0 5.12 1.024 7.168 2.048-3.072-7.168-10.24-12.288-18.432-12.288h-60.416v87.04h10.24V460.8zM400.384 556.032v77.824h11.264v-66.56h68.608v-11.264zM400.384 712.704h11.264v-49.152h68.608v-10.24h-79.872z" fill="#45503E" p-id="24552"></path><path d="M781.312 919.552H666.624c-11.264 0-20.48-9.216-20.48-20.48V705.536c0-11.264 9.216-20.48 20.48-20.48h114.688c11.264 0 20.48 9.216 20.48 20.48v193.536c0 11.264-9.216 20.48-20.48 20.48z" fill="#B28388" p-id="24553"></path><path d="M670.72 921.6c-1.024-2.048-1.024-5.12-1.024-7.168V713.728c0-9.216 6.144-17.408 14.336-17.408h100.352c2.048 0 3.072 1.024 4.096 1.024-2.048-6.144-7.168-10.24-12.288-10.24H675.84c-7.168 0-14.336 8.192-14.336 17.408v200.704c-1.024 8.192 3.072 14.336 9.216 16.384z" fill="#A4757C" p-id="24554"></path><path d="M460.8 410.624H321.536c-31.744 0-58.368 26.624-58.368 58.368v224.256c0 31.744 26.624 58.368 58.368 58.368H460.8c31.744 0 58.368-26.624 58.368-58.368V468.992c0-31.744-25.6-58.368-58.368-58.368z m19.456 58.368v67.584h-79.872v-87.04H460.8c11.264 0 19.456 9.216 19.456 19.456z m-79.872 87.04h79.872v77.824h-79.872v-77.824z m-19.456 77.824h-79.872v-77.824h79.872v77.824z m-59.392-184.32h60.416v87.04h-79.872v-67.584c0-10.24 8.192-19.456 19.456-19.456z m-19.456 243.712v-40.96h79.872v60.416h-60.416c-11.264 0-19.456-8.192-19.456-19.456zM460.8 712.704h-60.416v-60.416h79.872v40.96c0 11.264-8.192 19.456-19.456 19.456zM774.144 958.464h-100.352c-22.528 0-41.984-23.552-41.984-52.224V705.536c0-28.672 18.432-52.224 41.984-52.224h100.352c22.528 0 41.984 23.552 41.984 52.224v200.704c0 28.672-18.432 52.224-41.984 52.224z m-100.352-270.336c-7.168 0-14.336 8.192-14.336 17.408v200.704c0 9.216 6.144 17.408 14.336 17.408h100.352c7.168 0 14.336-8.192 14.336-17.408V705.536c0-9.216-6.144-17.408-14.336-17.408h-100.352z" fill="#FFFFFF" p-id="24555"></path><path d="M82.944 910.336h860.16v19.456h-860.16z" fill="#C49A6C" p-id="24556"></path><path d="M111.616 928.768h802.816v58.368H111.616z" fill="#695336" p-id="24557"></path><path d="M82.944 928.768h860.16v19.456h-860.16z" fill="#B2875A" p-id="24558"></path></svg>