<?xml version="1.0" standalone="no"?><!DOCTYPE svg PUBLIC "-//W3C//DTD SVG 1.1//EN" "http://www.w3.org/Graphics/SVG/1.1/DTD/svg11.dtd"><svg t="1701244267283" class="icon" viewBox="0 0 1024 1024" version="1.1" xmlns="http://www.w3.org/2000/svg" p-id="48874" xmlns:xlink="http://www.w3.org/1999/xlink" width="200" height="200"><path d="M96 832V384h-64v448h64z m192-448h-64v448h64V384z m704 448V384h-64v448h64zM0 320h96V192l64-64 64 64v128h576V192l64-64 64 64v128H1024v576h-96v128h-128v-128h-576v128h-128v-128H0V320z m800 512V384h-64v448h64z m-128 0V384h-64v448h64z m-128 0V384h-64v448h64z m-128 0V384h-64v448h64z" fill="#ffffff" p-id="48875"></path></svg>